<?xml version="1.0" standalone="no"?><!DOCTYPE svg PUBLIC "-//W3C//DTD SVG 1.1//EN" "http://www.w3.org/Graphics/SVG/1.1/DTD/svg11.dtd"><svg t="1646017962201" class="icon" viewBox="0 0 1024 1024" version="1.1" xmlns="http://www.w3.org/2000/svg" p-id="1106" xmlns:xlink="http://www.w3.org/1999/xlink" width="200" height="200"><defs><style type="text/css"></style></defs><path d="M456.021333 100.821333c191.061333-33.408 365.312 111.36 365.312 303.786667a307.626667 307.626667 0 0 1-76.501333 203.562667c-25.429333 29.44-39.125333 64.298667-39.125333 98.986666v46.08c0 36.437333-19.157333 68.778667-48.981334 86.869334l-3.285333 1.792-1.664 5.504a148.48 148.48 0 0 1-131.754667 100.992l-8.021333 0.213333c-64 0-119.466667-42.24-139.605333-100.992l-1.706667-5.504-3.114667-1.664a101.290667 101.290667 0 0 1-48.981333-79.445333l-0.298667-7.808v-46.08c0-34.346667-13.738667-69.845333-37.546666-96.426667-66.048-74.154667-91.861333-173.653333-70.997334-272.426667 24.789333-117.248 118.912-211.114667 235.989334-235.477333z m137.472 717.226667h-162.986666l0.512 2.389333c8.96 34.688 38.997333 60.928 74.325333 63.914667l6.656 0.256c40.746667 0 75.690667-30.549333 82.346667-70.528l-0.853334 3.925333z m49.322667-131.84H381.184c0.725333 6.954667 1.109333 13.952 1.109333 20.906667v46.933333h259.328l0.085334-0.853333v-46.08c0-6.997333 0.384-13.952 1.109333-20.906667z m114.517333-281.6c0-155.221333-143.232-271.445333-298.538666-239.146667-92.202667 19.2-166.869333 93.610667-186.453334 186.026667-16.64 79.018667 3.754667 157.781333 56.149334 216.533333l7.082666 8.405334a213.333333 213.333333 0 0 1 28.074667 45.781333h296.789333c9.002667-19.882667 21.162667-38.784 36.181334-56.149333l7.594666-9.045334a244.010667 244.010667 0 0 0 53.12-152.405333z m-245.76-177.066667c98.218667 0 178.346667 79.957333 178.346667 177.92a32 32 0 1 1-64 0 114.474667 114.474667 0 0 0-114.346667-113.92 32 32 0 1 1 0-64z" p-id="1107"></path></svg>